<svg preserveAspectRatio="none" overflow="visible" style="display: block;" width="16.5858" height="16.586" viewBox="0 0 16.5858 16.586" fill="none" xmlns="http://www.w3.org/2000/svg">
<g id="Vector">
<path d="M1.50001 16.086C0.947719 16.086 0.5 15.6383 0.5 15.086V12.4976C0.5 12.234 0.604123 11.981 0.789712 11.7937L10 2.5L11.3686 1.2174L11.3704 1.2157C11.7652 0.820816 11.963 0.623025 12.191 0.548943C12.3919 0.483685 12.6082 0.483685 12.8091 0.548943C13.0369 0.622973 13.2345 0.82054 13.6288 1.21486L15.3686 2.95466C15.7646 3.35067 15.9627 3.54878 16.0369 3.7771C16.1022 3.97795 16.1021 4.19429 16.0369 4.39513C15.9628 4.6233 15.765 4.8211 15.3695 5.21655L15.3686 5.2174L14 6.5L4.79343 15.7899C4.60564 15.9794 4.34992 16.086 4.08315 16.086L1.50001 16.086Z" fill="#201F21"/>
<path d="M14 6.5L15.3686 5.2174L15.3695 5.21655C15.765 4.8211 15.9628 4.6233 16.0369 4.39513C16.1021 4.19429 16.1022 3.97795 16.0369 3.7771C15.9627 3.54878 15.7646 3.35067 15.3686 2.95466L13.6288 1.21486C13.2345 0.82054 13.0369 0.622973 12.8091 0.548943C12.6082 0.483685 12.3919 0.483685 12.191 0.548943C11.963 0.623025 11.7652 0.820816 11.3704 1.2157L11.3686 1.2174L10 2.5L0.789712 11.7937C0.604123 11.981 0.5 12.234 0.5 12.4976V15.086C0.5 15.6383 0.947719 16.086 1.50001 16.086L4.08315 16.086C4.34992 16.086 4.60564 15.9794 4.79343 15.7899L14 6.5ZM10 2.5L14 6.5" stroke="#F9F8FA" stroke-linecap="round" stroke-linejoin="round"/>
</g>
</svg>
